<?xml version="1.0" encoding="UTF-8"?>
<svg version="1.1" xmlns="http://www.w3.org/2000/svg" width="224" height="225">
<path d="M0 0 C73.92 0 147.84 0 224 0 C224 74.25 224 148.5 224 225 C150.08 225 76.16 225 0 225 C0 150.75 0 76.5 0 0 Z " fill="#C20000" transform="translate(0,0)"/>
<path d="M0 0 C73.92 0 147.84 0 224 0 C224 74.25 224 148.5 224 225 C150.08 225 76.16 225 0 225 C0 150.75 0 76.5 0 0 Z M21.8125 27 C18.93528189 30.64056169 16.86463666 34.76238974 14.75 38.875 C14.40815674 39.535 14.06631348 40.195 13.71411133 40.875 C9.46716246 49.51070964 8.70102617 57.84288893 8.70947266 67.37207031 C8.70275543 68.47416336 8.69603821 69.57625641 8.68911743 70.71174622 C8.67021116 74.33391909 8.66621689 77.95590593 8.6640625 81.578125 C8.65762935 84.11244786 8.65090061 86.64676998 8.64389038 89.18109131 C8.63193593 94.48679626 8.62812159 99.79243273 8.62939453 105.09814453 C8.63059426 111.19950967 8.60951399 117.30052013 8.5779072 123.40179563 C8.54842688 129.30657713 8.54142321 135.21125218 8.54261398 141.11611176 C8.54026578 143.61177772 8.5314867 146.10744678 8.51594925 148.60306549 C8.40860942 167.62483818 9.44568765 185.39216546 23.046875 200.24609375 C36.35613918 212.19781299 50.31125763 217.3070057 68.07080078 217.29052734 C69.1292067 217.29724457 70.18761261 217.30396179 71.27809143 217.31088257 C74.75054725 217.32976 78.22280866 217.33378188 81.6953125 217.3359375 C84.13133826 217.34237351 86.56736327 217.34910246 89.00338745 217.35610962 C94.1022114 217.36805751 99.20096774 217.3717931 104.29980469 217.37060547 C110.79545452 217.37040265 117.29066504 217.39767797 123.78621101 217.43214989 C128.81720931 217.45451981 133.84810366 217.45843989 138.87914658 217.45738602 C141.2718545 217.45972783 143.66456593 217.46847011 146.05722427 217.48405075 C165.58844257 217.59931123 185.09600684 216.86100088 200.31640625 202.80859375 C207.1555321 195.46169058 211.73636986 187.46199745 215 178 C215.34479401 177.01616837 215.68958801 176.03233673 216.04483032 175.01869202 C217.4542655 169.9996516 217.29505044 164.95663726 217.29052734 159.77905273 C217.29724457 158.66910446 217.30396179 157.55915619 217.31088257 156.41557312 C217.32984111 152.75486744 217.33378623 149.09434544 217.3359375 145.43359375 C217.34236868 142.8763878 217.34909729 140.31918258 217.35610962 137.76197815 C217.36807834 132.4014384 217.37187695 127.04096648 217.37060547 121.68041992 C217.36940745 115.51776947 217.39044786 109.35547116 217.4220928 103.19290966 C217.45159499 97.23153863 217.45857607 91.27027298 217.45738602 85.30882454 C217.45973331 82.78886545 217.46850718 80.26890326 217.48405075 77.74899101 C217.5976365 57.42586654 216.38532253 40.52611045 201.96484375 24.875 C189.75448356 13.22296642 174.5663226 8.67292831 158.05517578 8.74121094 C156.47036911 8.73595398 156.47036911 8.73595398 154.85354614 8.73059082 C151.38406676 8.72183651 147.91479373 8.72760129 144.4453125 8.734375 C142.01829998 8.73302634 139.59128772 8.73108414 137.16427612 8.72857666 C132.08556539 8.72563375 127.00692517 8.72989554 121.92822266 8.73925781 C115.4400221 8.75063955 108.95198726 8.74409556 102.4637928 8.73211288 C97.45359057 8.72486142 92.44342717 8.7271975 87.43322372 8.73236847 C85.04198054 8.73369651 82.65073376 8.73208708 80.25949478 8.72740936 C76.90744032 8.72229136 73.55564836 8.73012867 70.20361328 8.74121094 C68.74127258 8.73513824 68.74127258 8.73513824 67.24938965 8.72894287 C49.86257342 8.83464354 34.13227463 14.31494903 21.8125 27 Z " fill="#FEFCFC" transform="translate(0,0)"/>
<path d="M0 0 C3.36048064 1.24191676 4.11275001 1.99423155 5.875 5.0625 C6.30737305 8.17871094 6.30737305 8.17871094 6.38671875 11.796875 C6.42216797 13.09238281 6.45761719 14.38789063 6.49414062 15.72265625 C6.51723867 17.08593226 6.54002114 18.44921364 6.5625 19.8125 C6.59568648 21.19143862 6.63017738 22.5703465 6.66601562 23.94921875 C6.74852291 27.32023059 6.81766771 30.69098128 6.875 34.0625 C7.28862793 33.34594238 7.70225586 32.62938477 8.12841797 31.89111328 C9.99903972 28.65469076 11.874455 25.42107172 13.75 22.1875 C14.40097656 21.05957031 15.05195312 19.93164062 15.72265625 18.76953125 C16.66044922 17.15498047 16.66044922 17.15498047 17.6171875 15.5078125 C18.1932373 14.51281738 18.76928711 13.51782227 19.36279297 12.49267578 C20.875 10.0625 20.875 10.0625 22.875 8.0625 C26.1875 7.5625 26.1875 7.5625 29.875 8.0625 C34.74039122 12.96043565 37.84631213 18.94528457 41.1875 24.9375 C41.73728516 25.91203125 42.28707031 26.8865625 42.85351562 27.890625 C44.19947872 30.27824649 45.53977881 32.66886011 46.875 35.0625 C46.87910889 34.17989502 46.88321777 33.29729004 46.88745117 32.38793945 C46.91449984 29.0977396 46.96364951 25.80938602 47.02758789 22.51977539 C47.05071503 21.09899298 47.06515126 19.67804042 47.07055664 18.25708008 C47.07988661 16.20807534 47.12095166 14.1617265 47.16796875 12.11328125 C47.19153442 10.26730347 47.19153442 10.26730347 47.21557617 8.3840332 C48.04872131 4.1874617 49.5359147 2.66113799 52.875 0.0625 C56 0 56 0 58.875 1.0625 C61.93016398 4.21008674 62.25631064 6.54238341 62.27905273 10.85327148 C62.29173691 12.01805527 62.30442108 13.18283905 62.31748962 14.38291931 C62.31455399 15.63714188 62.31161835 16.89136444 62.30859375 18.18359375 C62.3138356 19.47564224 62.31907745 20.76769073 62.32447815 22.09889221 C62.33340375 24.83173394 62.33099302 27.56428335 62.32104492 30.29711914 C62.30955938 33.79217985 62.32976119 37.28622958 62.35896206 40.78115749 C62.3817656 44.1236893 62.37485573 47.46598605 62.37109375 50.80859375 C62.38232773 52.06079208 62.39356171 53.31299042 62.40513611 54.60313416 C62.39106468 56.35503807 62.39106468 56.35503807 62.37670898 58.14233398 C62.37654282 59.16729477 62.37637665 60.19225555 62.37620544 61.24827576 C61.74022261 64.81926314 60.40132773 66.50261782 57.875 69.0625 C55 69.8125 55 69.8125 51.875 69.0625 C46.24289228 63.46323256 42.5505687 56.71617006 38.69628906 49.84619141 C37.62099123 47.93035767 36.53415401 46.0214442 35.4453125 44.11328125 C29.71499081 34.00704459 29.71499081 34.00704459 27.875 29.0625 C25.03091103 31.58950239 23.37641572 34.4281068 21.51171875 37.7265625 C20.87169922 38.84933594 20.23167969 39.97210938 19.57226562 41.12890625 C18.90191997 42.31486473 18.2320004 43.50106415 17.5625 44.6875 C6.256773 64.680727 6.256773 64.680727 1.875 69.0625 C-1 69.5 -1 69.5 -4.125 69.0625 C-7.6751275 65.51836091 -8.62831178 63.12656763 -8.65844727 58.15820312 C-8.6742836 56.99349487 -8.69011993 55.82878662 -8.70643616 54.62878418 C-8.70147629 53.3797229 -8.69651642 52.13066162 -8.69140625 50.84375 C-8.69760483 49.55311646 -8.70380341 48.26248291 -8.71018982 46.93273926 C-8.72057719 44.20579132 -8.71605691 41.47936577 -8.70141602 38.75244141 C-8.6842206 35.26502766 -8.70773747 31.77926042 -8.74290562 28.29203033 C-8.7701967 24.955007 -8.76014273 21.61837975 -8.75390625 18.28125 C-8.76716446 17.03218872 -8.78042267 15.78312744 -8.79408264 14.49621582 C-8.69050015 4.87024332 -8.69050015 4.87024332 -5.78100586 1.74023438 C-3.125 0.0625 -3.125 0.0625 0 0 Z " fill="#FDF8F8" transform="translate(46.125,132.9375)"/>
<path d="M0 0 C2.5278362 0.1626638 3.73706507 0.41332152 5.66235352 2.08422852 C9.13634911 6.37009162 12.25258325 10.76722223 15.1875 15.4375 C16.13240215 16.91953254 17.07773465 18.40129077 18.0234375 19.8828125 C18.5194043 20.66301758 19.01537109 21.44322266 19.52636719 22.24707031 C22.42635231 26.78748685 25.37223105 31.29811096 28.3125 35.8125 C29.43109197 37.5324855 30.54959053 39.25253176 31.66796875 40.97265625 C32.4869533 42.23178766 33.30595307 43.49090917 34.125 44.75 C34.13958252 43.55922852 34.15416504 42.36845703 34.16918945 41.14160156 C34.22719235 36.72072423 34.30442515 32.30035519 34.38745117 27.87988281 C34.42069114 25.96720636 34.44872599 24.05443203 34.47143555 22.14160156 C34.50499869 19.39085206 34.55731489 16.64099868 34.61328125 13.890625 C34.61967117 13.03631897 34.6260611 12.18201294 34.63264465 11.30181885 C34.71945017 7.79117494 34.80894455 5.36131082 36.43823242 2.20996094 C38.125 0.75 38.125 0.75 41.625 0.25 C45.125 0.75 45.125 0.75 46.8184967 2.41932678 C48.44196512 5.31543457 48.51157434 7.22764707 48.52905273 10.54077148 C48.54173691 11.70555527 48.55442108 12.87033905 48.56748962 14.07041931 C48.56455399 15.32464188 48.56161835 16.57886444 48.55859375 17.87109375 C48.5638356 19.16314224 48.56907745 20.45519073 48.57447815 21.78639221 C48.58340375 24.51923394 48.58099302 27.25178335 48.57104492 29.98461914 C48.55955938 33.47967985 48.57976119 36.97372958 48.60896206 40.46865749 C48.6317656 43.8111893 48.62485573 47.15348605 48.62109375 50.49609375 C48.63794472 52.37439125 48.63794472 52.37439125 48.65513611 54.29063416 C48.64106468 56.04253807 48.64106468 56.04253807 48.62670898 57.82983398 C48.62654282 58.85479477 48.62637665 59.87975555 48.62620544 60.93577576 C47.98765656 64.52117126 46.6919476 66.2046145 44.125 68.75 C40.17662906 69.39609706 38.07965638 69.37859145 34.70898438 67.15917969 C31.60707059 64.26710815 29.49078154 61.19783393 27.21875 57.640625 C26.77156616 56.95498474 26.32438232 56.26934448 25.86364746 55.56292725 C24.44286428 53.38029728 23.03389066 51.1903206 21.625 49 C20.67913842 47.54378146 19.73253051 46.08804739 18.78515625 44.6328125 C14.50344916 38.04285464 10.27529349 31.42363014 6.125 24.75 C6.1156543 25.94077148 6.10630859 27.13154297 6.09667969 28.35839844 C6.05678613 32.77935092 5.99102927 37.19960703 5.91748047 41.62011719 C5.88926714 43.53278656 5.86805439 45.4455726 5.85400391 47.35839844 C5.83257919 50.10933173 5.7859326 52.85886175 5.734375 55.609375 C5.73253204 56.89083405 5.73253204 56.89083405 5.73065186 58.19818115 C5.58484708 64.11749748 5.58484708 64.11749748 3.27832031 67.29003906 C0.34166303 69.28110602 -1.40320888 69.34094317 -4.875 68.75 C-7.95999045 65.64457182 -8.25644031 63.24553704 -8.27905273 58.95922852 C-8.29173691 57.79444473 -8.30442108 56.62966095 -8.31748962 55.42958069 C-8.31455399 54.17535812 -8.31161835 52.92113556 -8.30859375 51.62890625 C-8.3138356 50.33685776 -8.31907745 49.04480927 -8.32447815 47.71360779 C-8.33340375 44.98076606 -8.33099302 42.24821665 -8.32104492 39.51538086 C-8.30955938 36.02032015 -8.32976119 32.52627042 -8.35896206 29.03134251 C-8.3817656 25.6888107 -8.37485573 22.34651395 -8.37109375 19.00390625 C-8.38232773 17.75170792 -8.39356171 16.49950958 -8.40513611 15.20936584 C-8.39575516 14.0414299 -8.38637421 12.87349396 -8.37670898 11.67016602 C-8.37654282 10.64520523 -8.37637665 9.62024445 -8.37620544 8.56422424 C-7.43465248 3.27748762 -5.19358569 1.00521013 0 0 Z " fill="#FDF9F9" transform="translate(139.875,132.25)"/>
<path d="M0 0 C0 2.97 0 5.94 0 9 C-0.78761719 9.00257812 -1.57523438 9.00515625 -2.38671875 9.0078125 C-11.05247463 9.31547247 -18.74047479 11.0358466 -26 16 C-26.99 18.475 -26.99 18.475 -28 21 C-24.37 21.66 -20.74 22.32 -17 23 C-18.56891482 26.13782964 -20.02310093 28.50839252 -22.125 31.25 C-22.66382812 31.95640625 -23.20265625 32.6628125 -23.7578125 33.390625 C-24.16773437 33.92171875 -24.57765625 34.4528125 -25 35 C-24.11957031 34.855625 -23.23914063 34.71125 -22.33203125 34.5625 C-21.17058594 34.376875 -20.00914063 34.19125 -18.8125 34 C-17.08966797 33.7215625 -17.08966797 33.7215625 -15.33203125 33.4375 C-12.49584607 33.06510523 -9.85280436 32.91403979 -7 33 C-8.32 31.02 -9.64 29.04 -11 27 C-10.67 26.34 -10.34 25.68 -10 25 C-7.95880212 26.61594832 -5.95927063 28.2856382 -4 30 C-4 30.66 -4 31.32 -4 32 C2.27 32 8.54 32 15 32 C11.60577072 26.90835299 11.60577072 26.90835299 8 22 C9.6875 19.9375 9.6875 19.9375 12 18 C14.4375 17.875 14.4375 17.875 17 19 C21.47341053 23.27007369 22.31755141 25.7541118 23 32 C24.03898437 31.97679688 25.07796875 31.95359375 26.1484375 31.9296875 C34.01091905 31.80895842 41.34268797 31.93841599 49 34 C49 34.33 49 34.66 49 35 C40.75 35 32.5 35 24 35 C24.99 40.28 25.98 45.56 27 51 C30.465 43.575 30.465 43.575 34 36 C36.64 36 39.28 36 42 36 C40.3651569 41.51534981 37.96388347 46.51018464 35.375 51.625 C34.97410156 52.470625 34.57320313 53.31625 34.16015625 54.1875 C31.52001357 59.36969957 29.23042141 62.11661704 23.85400391 64.45458984 C22 65 22 65 19 65 C18.49209841 61.48026001 17.99511477 57.95905958 17.5 54.4375 C17.35691406 53.44685547 17.21382813 52.45621094 17.06640625 51.43554688 C16.34079377 46.23532412 15.82326589 41.25047582 16 36 C15.01 36.495 15.01 36.495 14 37 C11.45384991 37.23172827 8.92603775 37.41894529 6.375 37.5625 C5.66859375 37.60568359 4.9621875 37.64886719 4.234375 37.69335938 C2.48981463 37.79944751 0.74493303 37.90022889 -1 38 C-0.96777344 39.0725 -0.93554688 40.145 -0.90234375 41.25 C-1.06883731 47.6433529 -3.85735692 52.03647527 -8.125 56.6875 C-13.3798232 61.58301905 -19.53650314 65.17706009 -26.8125 65.625 C-30.3668421 65.42369213 -31.02649669 64.97902345 -34 62.625 C-36.9869519 58.70462564 -37.11457 56.76957974 -37.0625 51.875 C-37.05347656 50.77929688 -37.04445313 49.68359375 -37.03515625 48.5546875 C-37.02355469 47.71164063 -37.01195313 46.86859375 -37 46 C-37.68707031 46.2165625 -38.37414062 46.433125 -39.08203125 46.65625 C-39.98308594 46.9346875 -40.88414063 47.213125 -41.8125 47.5 C-42.70582031 47.7784375 -43.59914063 48.056875 -44.51953125 48.34375 C-47 49 -47 49 -50 49 C-49.36079057 46.99105606 -48.68960962 44.99220557 -48 43 C-47.773125 42.2575 -47.54625 41.515 -47.3125 40.75 C-45.14239438 37.85652584 -42.44088803 37.68817761 -39 37 C-35.5625 36.875 -35.5625 36.875 -33 37 C-32.5978125 35.6696875 -32.5978125 35.6696875 -32.1875 34.3125 C-31 31 -31 31 -29.25 28.375 C-28.8375 27.59125 -28.425 26.8075 -28 26 C-28.79117904 24.00016466 -28.79117904 24.00016466 -30 22 C-30.60829313 18.00264518 -30.27618098 16.42763506 -28.0625 13 C-21.07815687 5.52655721 -10.404807 -0.48655572 0 0 Z " fill="#FBF1F1" transform="translate(112,21)"/>
<path d="M0 0 C4.15142405 0.58265601 5.0407975 1.2523406 7.5625 4.5 C8.07043457 7.1872406 8.07043457 7.1872406 8.08007812 10.29077148 C8.09268677 11.45555527 8.10529541 12.62033905 8.11828613 13.82041931 C8.10614075 15.70175316 8.10614075 15.70175316 8.09375 17.62109375 C8.0975769 18.91314224 8.10140381 20.20519073 8.10534668 21.53639221 C8.11123755 24.26932942 8.10269462 27.00174293 8.08398438 29.73461914 C8.06121629 33.22972374 8.07430478 36.7235982 8.09827423 40.21865749 C8.11624679 43.5612335 8.10364312 46.90348284 8.09375 50.24609375 C8.10184692 51.49829208 8.10994385 52.75049042 8.11828613 54.04063416 C8.10567749 55.2085701 8.09306885 56.37650604 8.08007812 57.57983398 C8.07689575 58.60479477 8.07371338 59.62975555 8.07043457 60.68577576 C7.42573025 64.25777626 6.10767073 65.95225704 3.5625 68.5 C0.5 69 0.5 69 -2.4375 68.5 C-4.47417615 66.95493534 -5.29823078 65.77853844 -6.4375 63.5 C-6.54383329 61.64240222 -6.58631807 59.78100808 -6.59863281 57.92041016 C-6.60824036 56.75224762 -6.6178479 55.58408508 -6.62774658 54.38052368 C-6.63199646 53.11284149 -6.63624634 51.8451593 -6.640625 50.5390625 C-6.64632507 49.24181244 -6.65202515 47.94456238 -6.65789795 46.60800171 C-6.66840675 43.85910652 -6.67425012 41.11024057 -6.67773438 38.36132812 C-6.68321751 34.84166105 -6.70724158 31.32238115 -6.73570633 27.80283546 C-6.75882895 24.44408504 -6.76078215 21.08538843 -6.765625 17.7265625 C-6.7779718 16.46292877 -6.7903186 15.19929504 -6.80303955 13.89736938 C-6.80003845 12.72290253 -6.79703735 11.54843567 -6.79394531 10.33837891 C-6.79759094 9.3051651 -6.80123657 8.27195129 -6.80499268 7.20742798 C-6.1619357 2.46983575 -4.73444609 0.6886467 0 0 Z " fill="#FCF6F6" transform="translate(119.4375,132.5)"/>
<path d="M0 0 C-0.31375669 7.53016052 -3.77330563 11.89303455 -9.10546875 17.02734375 C-15.96956368 23.14126437 -15.96956368 23.14126437 -21 23.1875 C-22.051875 23.20876953 -22.051875 23.20876953 -23.125 23.23046875 C-25 23 -25 23 -27 21 C-27.30078125 18.35546875 -27.30078125 18.35546875 -27.3125 15.1875 C-27.32925781 14.14980469 -27.34601563 13.11210938 -27.36328125 12.04296875 C-26.92609431 8.38094049 -26.50684386 6.73904679 -24 4 C-20.94815926 2.80337229 -17.84675801 2.2462283 -14.625 1.6875 C-13.77421875 1.51927734 -12.9234375 1.35105469 -12.046875 1.17773438 C-7.99592543 0.40477281 -4.14220282 -0.23012238 0 0 Z " fill="#C30404" transform="translate(106,60)"/>
<path d="M0 0 C0.17395612 5.40755017 0.30049016 10.8134482 0.38452148 16.22314453 C0.41957274 18.06034742 0.46723026 19.89735716 0.52807617 21.73388672 C1.08472855 38.97607719 1.08472855 38.97607719 -3.46484375 44.25 C-6.56766055 47 -6.56766055 47 -8 47 C-8.14889585 41.43167699 -8.2574727 35.86452532 -8.32958984 30.29467773 C-8.35966736 28.40221967 -8.40054133 26.50989991 -8.45263672 24.61791992 C-8.52585497 21.88946343 -8.55954542 19.16285717 -8.5859375 16.43359375 C-8.61690521 15.59477158 -8.64787292 14.7559494 -8.67977905 13.89170837 C-8.68298822 8.22450294 -7.3610818 5.33871891 -3.48721313 1.19960022 C-2 0 -2 0 0 0 Z " fill="#F9E9E9" transform="translate(125,59)"/>
<path d="M0 0 C0 2.97 0 5.94 0 9 C-0.78761719 9.00257812 -1.57523438 9.00515625 -2.38671875 9.0078125 C-11.50359494 9.33148858 -21.29554112 11.29554112 -28 18 C-28.66 18 -29.32 18 -30 18 C-27.64403351 10.77090281 -21.34649298 7.06150793 -14.8125 3.6875 C-9.88678212 1.41033281 -5.50781828 -0.32398931 0 0 Z " fill="#F9E9E9" transform="translate(112,21)"/>
<path d="M0 0 C4.48883537 0.89776707 6.57302472 1.71909549 10.3125 4.0625 C11.19550781 4.61035156 12.07851562 5.15820312 12.98828125 5.72265625 C13.65214844 6.14417969 14.31601563 6.56570312 15 7 C13.74990946 10.75027162 12.52798171 11.20668727 9.1875 13.1875 C8.31480469 13.71730469 7.44210938 14.24710938 6.54296875 14.79296875 C4 16 4 16 0 16 C0 10.72 0 5.44 0 0 Z " fill="#FAF6F6" transform="translate(113,111)"/>
<path d="M0 0 C5.94 0 11.88 0 18 0 C18 0.33 18 0.66 18 1 C15.36 1 12.72 1 10 1 C9.82984375 1.556875 9.6596875 2.11375 9.484375 2.6875 C7.76684063 8.09590609 5.64657745 12.98062896 3 18 C2.67 18 2.34 18 2 18 C1.65855641 16.31412229 1.32728197 14.62618407 1 12.9375 C0.7215625 11.52791016 0.7215625 11.52791016 0.4375 10.08984375 C0 7 0 7 0 0 Z " fill="#C51010" transform="translate(136,56)"/>
</svg>
