<svg xmlns="http://www.w3.org/2000/svg" viewBox="0 0 1024 1024">
  <rect width="1024" height="1024" fill="#141414"/>
  <path fill="#e50914" d="M294 217h122l156 425c10 28 18 56 25 84l3 11h3l3-11c7-28 15-56 25-84l155-425h122v590h-99V388c0-28 1-56 3-84l2-11h-3l-3 11-26 84-129 352h-99l-130-352-26-84-3-11h-3l2 11c2 28 3 56 3 84v419h-99V217z"/>
  <path fill="#b1060f" d="M416 217h99l130 352 26 84 3 11h3l-2-11c-2-28-3-56-3-84V217h99v590h-122l-155-425c-10-28-18-56-25-84l-3-11h-3l3 11c7 28 15 56 25 84l156 425H416V217z"/>
</svg>
